<?xml version="1.0" encoding="UTF-8"?><svg id="Layer_1" xmlns="http://www.w3.org/2000/svg" viewBox="0 0 580 310"><g><path d="M57.83,253.42c.73,2.24,1.23,6.51,.8,11.94-.99,12.44-8.31,22.51-22.07,22.7-13.07,.25-22.2-11.82-20.84-28.49,.56-6.62,2.18-10.51,3.12-12.15,1.39,.75,2.79,1.5,4.18,2.24-1.28,2.33-2.41,5.82-2.77,10.15-1.02,12.34,5.22,21.09,16.19,21.26,10.28,.2,16.87-6.4,17.76-17.38,.29-3.58,0-7.25-.78-9.73,1.46-.19,2.93-.37,4.39-.55Z"/><path d="M48.97,206.26c-1.64,5.45-3.12,11.03-4.42,16.74,4.89,1.32,9.78,2.64,14.67,3.95,1.37-5.98,2.93-11.81,4.69-17.48,1.44,.51,2.88,1.02,4.32,1.53-2.24,7.22-4.16,14.69-5.75,22.42-13.64-3.33-27.27-6.66-40.91-10,1.8-8.78,3.97-17.29,6.48-25.51,1.44,.5,2.88,1.01,4.32,1.51-1.88,6.15-3.56,12.46-5.04,18.94,4.29,1.15,8.58,2.31,12.86,3.46,1.33-5.82,2.83-11.5,4.5-17.04,1.42,.49,2.85,.98,4.27,1.47Z"/><path d="M85.08,168.22c-.02,2.09-.88,5.7-2.95,9.83-4.75,9.43-14.6,14.19-27.41,8.76-12.19-5.12-17-18.07-10.6-30.71,2.56-5.01,5.27-7.48,6.65-8.41,1.06,1.17,2.12,2.33,3.19,3.48-1.91,1.35-4.03,3.67-5.71,6.96-4.75,9.35-1.63,18.64,8.49,23.23,9.48,4.32,17.59,1.9,21.8-6.42,1.37-2.71,2.23-5.76,2.29-8.05,1.42,.44,2.83,.88,4.25,1.33Z"/><path d="M63.99,124.74c11.45,8.42,22.9,16.84,34.35,25.26-.92,1.28-1.83,2.58-2.72,3.89-11.62-8.18-23.23-16.37-34.85-24.55,1.06-1.55,2.13-3.08,3.22-4.6Z"/><path d="M78.43,106.55c1.21-1.38,2.43-2.75,3.67-4.1,9.38,8.53,18.76,17.07,28.13,25.6,3.53-3.85,7.19-7.55,10.96-11.1,1.07,1.11,2.14,2.22,3.2,3.33-4.82,4.53-9.44,9.31-13.85,14.35-10.71-9.36-21.41-18.72-32.12-28.07Z"/><path d="M113.62,73.59c8.89,11.06,17.78,22.11,26.68,33.17-1.21,.93-2.41,1.87-3.6,2.82-9.11-10.88-18.22-21.77-27.33-32.65,1.41-1.13,2.82-2.24,4.25-3.34Z"/><path d="M161.9,69.4c-4.39,2.31-8.71,4.75-12.95,7.32,2.78,4.28,5.55,8.56,8.33,12.84,4.44-2.69,8.97-5.23,13.58-7.62,.75,1.34,1.49,2.67,2.24,4.01-5.87,3.03-11.6,6.32-17.18,9.87-7.94-11.72-15.88-23.45-23.82-35.17,6.34-4.03,12.85-7.78,19.5-11.25,.75,1.33,1.5,2.67,2.25,4-4.98,2.6-9.87,5.35-14.68,8.27,2.43,3.75,4.87,7.5,7.3,11.25,4.32-2.62,8.71-5.11,13.18-7.46,.75,1.31,1.49,2.62,2.24,3.94Z"/><path d="M195.4,31.79c2.4-1.36,6.04-2.8,9.63-3.81,5.56-1.56,9.49-1.41,12.6,.29,2.51,1.33,4.32,3.87,5.11,7.01,1.33,5.39-.94,9.65-4.44,12.09,.02,.06,.03,.12,.05,.18,3.18,.35,5.66,2.86,7.6,6.88,2.64,5.4,4.43,9.16,5.54,10.57-1.54,.34-3.07,.69-4.6,1.06-.87-1.01-2.57-4.32-4.98-9.12-2.61-5.32-5.21-6.94-9.57-5.92-1.49,.42-2.97,.85-4.45,1.29,1.91,5.77,3.83,11.54,5.74,17.31-1.46,.44-2.91,.89-4.35,1.35-4.62-13.06-9.25-26.13-13.87-39.19Zm11.18,16.61c1.63-.49,3.27-.96,4.92-1.42,5.13-1.43,7.6-5.27,6.36-9.92-1.4-5.24-5.78-6.64-11.23-5.18-2.47,.69-4.15,1.45-4.89,1.94,1.61,4.86,3.23,9.72,4.84,14.59Z"/><path d="M251.32,48.17c-.66,4.52-1.24,9.04-1.75,13.55-1.56,.22-3.12,.46-4.67,.72,1.44-14.41,3.63-28.83,6.56-43.24,2.16-.25,4.33-.47,6.49-.67,6.2,13.45,11.68,27.09,16.42,40.85-1.63,.07-3.26,.16-4.88,.27-1.58-4.3-3.23-8.59-4.95-12.86-4.42,.35-8.82,.81-13.21,1.38Zm11.82-5.51c-1.62-3.9-3.29-7.79-5.02-11.66-1.18-2.63-2.07-5.04-2.95-7.39-.04,0-.08,0-.12,.01-.32,2.53-.67,5.14-1.12,7.75-.79,4.16-1.53,8.32-2.2,12.47,3.8-.48,7.6-.87,11.42-1.19Z"/><path d="M296.61,59.33c-3.21-14.11-7.13-28.16-11.76-42.1,1.95,0,3.9,0,5.85,.03,2.06,6.91,3.96,13.84,5.68,20.79,1.43,5.71,2.55,10.87,3.23,15.82,.04,0,.07,0,.11,0,1.3-4.79,3.19-9.97,5.32-15.31,2.7-6.73,5.58-13.43,8.64-20.08,1.92,.17,3.84,.37,5.76,.58-6.68,13.32-12.62,26.85-17.78,40.53-1.68-.1-3.36-.19-5.04-.26Z"/><path d="M329.11,62.74c2.62-13.74,5.25-27.48,7.87-41.22,1.94,.33,3.87,.68,5.81,1.05,2.91,7.76,5.46,15.56,7.65,23.37,1.51,5.43,2.38,10.23,2.83,14.8,.04-.01,.08-.02,.12-.03,1.17-5.5,2.5-10.44,4.35-16.73,1.65-5.63,3.3-11.26,4.96-16.89,1.64,.43,3.27,.88,4.9,1.34-4.2,13.39-8.4,26.77-12.61,40.16-1.48-.42-2.96-.82-4.45-1.21-1.62-7.78-3.6-15.57-5.95-23.33-1.54-5.11-3.12-10.31-4.21-15.14-.06,0-.13,.02-.19,.03-.78,5.24-1.71,10.2-3.15,17.02-1.23,5.85-2.46,11.7-3.69,17.56-1.41-.27-2.82-.52-4.24-.76Z"/><path d="M383.42,78.59c5.94-12.78,11.87-25.55,17.81-38.33,1.8,.77,3.6,1.55,5.38,2.36,.92,8.23,1.47,16.42,1.67,24.54,.13,5.64-.21,10.53-.9,15.09,.04,0,.08,0,.13,0,2.5-5.08,5-9.59,8.35-15.28,2.99-5.1,5.99-10.2,8.98-15.3,1.48,.81,2.96,1.63,4.43,2.47-7.38,12.06-14.76,24.12-22.14,36.18-1.33-.76-2.67-1.5-4.02-2.24,.34-7.97,.34-16.02-.02-24.13-.24-5.34-.49-10.77-.36-15.72-.06,0-.13-.01-.19-.02-2.05,4.92-4.18,9.53-7.26,15.85-2.64,5.41-5.28,10.83-7.92,16.24-1.3-.58-2.62-1.15-3.93-1.71Z"/><path d="M452.75,69.25c-8.59,11.28-17.18,22.56-25.77,33.84-1.23-.89-2.47-1.77-3.72-2.63,8.36-11.44,16.73-22.88,25.09-34.32,1.48,1.02,2.95,2.06,4.4,3.11Z"/><path d="M469.85,113.99c-3.49-3.64-7.1-7.15-10.8-10.52-3.5,3.74-7,7.48-10.51,11.21,3.88,3.53,7.64,7.22,11.27,11.06-1.13,1.05-2.25,2.1-3.38,3.15-4.62-4.89-9.45-9.53-14.48-13.9,9.51-10.55,19.01-21.11,28.52-31.66,5.71,4.97,11.21,10.23,16.47,15.76-1.12,1.06-2.24,2.11-3.36,3.17-3.94-4.14-8.02-8.12-12.21-11.94-3.07,3.28-6.14,6.55-9.21,9.83,3.77,3.44,7.44,7.01,10.99,10.71-1.1,1.04-2.2,2.09-3.31,3.13Z"/><path d="M501.09,115.34c1.15,1.45,2.29,2.91,3.41,4.39-10.04,7.74-20.08,15.48-30.12,23.21,3.2,4.22,6.26,8.6,9.17,13.13-1.28,.85-2.56,1.71-3.84,2.56-3.72-5.78-7.68-11.31-11.88-16.58,11.08-8.9,22.17-17.81,33.25-26.71Z"/><path d="M493.88,169.53c-.25,2.74,.14,6.24,1.64,9.35,2.22,4.61,6.07,6.15,9.95,4.31,3.57-1.7,4.79-4.71,4.34-10.79-.74-7.22,.33-12.7,5.53-15.7,5.71-3.33,12.8-.76,16.57,7.32,1.97,4.24,2.39,7.82,2.2,10.14-1.56,.12-3.12,.25-4.68,.39,.11-1.66,.06-4.98-1.65-8.67-2.61-5.55-6.74-5.89-9.27-4.5-3.5,1.91-3.98,5.15-3.54,11.47,.53,7.78-1.33,12.58-7,15.12-6.01,2.66-12.75,.76-16.62-7.29-1.6-3.31-2.4-7.41-2.06-9.96,1.53-.4,3.06-.8,4.59-1.19Z"/><path d="M528.49,226.82c-1.23-5.77-2.63-11.41-4.2-16.92-4.82,1.58-9.65,3.17-14.47,4.75,1.64,5.76,3.09,11.69,4.34,17.76-1.48,.36-2.95,.72-4.43,1.08-1.58-7.73-3.51-15.21-5.74-22.43,13.29-4.7,26.58-9.39,39.86-14.09,2.54,8.2,4.74,16.68,6.57,25.44-1.48,.37-2.95,.73-4.43,1.1-1.37-6.56-2.95-12.95-4.72-19.19-4.23,1.39-8.46,2.78-12.68,4.16,1.6,5.61,3.02,11.35,4.28,17.22-1.45,.37-2.91,.73-4.36,1.1Z"/><path d="M513.04,253.95c13.84-2.08,27.68-4.16,41.52-6.24,.29,2.42,.56,4.87,.8,7.33-6.48,6.46-13.14,12.58-19.95,18.34-4.74,4-9.08,6.99-13.32,9.37,.02,.05,.04,.09,.06,.14,5.58-.7,10.67-.98,17.2-1.14,5.84-.15,11.68-.29,17.52-.44,.04,2.24,.06,4.49,.06,6.76h-41.89c0-2.06-.02-4.1-.06-6.13,6.98-5.12,13.83-10.63,20.53-16.48,4.4-3.86,8.86-7.74,13.11-10.89-.03-.07-.06-.15-.09-.22-5.21,1.05-10.2,1.82-17.12,2.7-5.93,.75-11.86,1.5-17.79,2.25-.18-1.79-.38-3.57-.59-5.34Z"/></g><g><path d="M125.76,262.97c.38,1.59,.59,4.66,.28,8.59-.72,9.02-4.88,16.31-12.73,16.42-7.46,.15-12.7-8.29-11.75-19.92,.39-4.62,1.38-7.37,1.95-8.53,.79,.5,1.57,.99,2.36,1.49-.77,1.66-1.46,4.11-1.72,7.15-.71,8.64,2.84,14.75,9.1,14.85,5.88,.12,9.63-4.67,10.28-12.59,.21-2.58,.1-5.21-.3-6.97,.84-.17,1.69-.33,2.53-.49Z"/><path d="M122,229.82c-1.17,3.87-2.22,7.84-3.15,11.9,2.79,.75,5.58,1.5,8.38,2.26,.98-4.31,2.11-8.5,3.38-12.59,.82,.29,1.64,.58,2.46,.87-1.62,5.22-3.01,10.62-4.15,16.21-7.78-1.9-15.57-3.8-23.35-5.71,1.26-6.14,2.78-12.09,4.54-17.84,.82,.29,1.64,.57,2.47,.86-1.32,4.32-2.5,8.75-3.54,13.29,2.45,.66,4.9,1.32,7.34,1.98,.94-4.12,2.01-8.15,3.19-12.08,.81,.28,1.62,.56,2.44,.84Z"/><path d="M145.44,201.45c-.14,1.43-.9,3.97-2.4,6.95-3.45,6.84-9.51,10.75-16.83,7.65-6.96-2.92-9.26-11.51-4.79-20.32,1.79-3.5,3.56-5.3,4.44-6,.57,.72,1.15,1.43,1.73,2.14-1.22,1.02-2.63,2.69-3.8,4.99-3.33,6.55-1.89,12.71,3.88,15.33,5.41,2.47,10.35,.31,13.39-5.7,.99-1.95,1.7-4.1,1.87-5.67,.83,.21,1.67,.42,2.5,.63Z"/><path d="M135.24,173.75c6.54,4.81,13.07,9.61,19.61,14.42-.66,.93-1.32,1.86-1.97,2.81-6.63-4.67-13.26-9.34-19.89-14.01,.74-1.08,1.49-2.15,2.25-3.21Z"/><path d="M145.33,161.03c.85-.97,1.7-1.92,2.57-2.87,5.35,4.87,10.71,9.74,16.06,14.61,2.54-2.77,5.17-5.44,7.89-7.99,.61,.63,1.22,1.27,1.83,1.9-3.48,3.28-6.83,6.73-10.01,10.37-6.11-5.34-12.22-10.68-18.33-16.02Z"/><path d="M169.94,137.98c5.08,6.31,10.15,12.62,15.23,18.93-.87,.67-1.74,1.35-2.6,2.04-5.2-6.21-10.4-12.43-15.6-18.64,.98-.79,1.98-1.57,2.97-2.34Z"/><path d="M202.29,132.53c-3.12,1.64-6.19,3.38-9.2,5.21,1.59,2.44,3.17,4.89,4.76,7.33,3.2-1.94,6.46-3.77,9.78-5.48l1.28,2.29c-4.24,2.19-8.39,4.57-12.42,7.14-4.53-6.69-9.06-13.38-13.59-20.08,4.43-2.82,8.99-5.44,13.64-7.87,.43,.76,.86,1.52,1.29,2.28-3.49,1.82-6.93,3.76-10.3,5.8,1.39,2.14,2.78,4.28,4.17,6.42,3.06-1.86,6.17-3.62,9.34-5.28,.43,.75,.85,1.5,1.28,2.25Z"/><path d="M227.12,108.67c1.7-.89,4.26-1.85,6.77-2.56,3.89-1.09,6.6-1.12,8.7-.23,1.7,.7,2.88,2.11,3.33,3.91,.76,3.08-.97,5.61-3.52,7.14,0,.03,.02,.07,.03,.1,2.22,.1,3.87,1.47,5.11,3.74,1.68,3.05,2.83,5.16,3.57,5.94-1.11,.24-2.22,.5-3.33,.76-.58-.56-1.67-2.42-3.19-5.12-1.64-3-3.4-3.86-6.5-3.1-1.06,.3-2.12,.6-3.17,.92,1.09,3.29,2.19,6.59,3.28,9.88-1.05,.32-2.1,.64-3.15,.97-2.64-7.46-5.28-14.91-7.92-22.37Zm7.04,9.28c1.16-.35,2.32-.68,3.49-1.01,3.64-1.01,5.51-3.31,4.81-5.97-.8-2.99-3.79-3.68-7.61-2.65-1.73,.48-2.92,.99-3.45,1.3,.92,2.78,1.84,5.55,2.76,8.33Z"/><path d="M265.72,116.54c-.56,2.6-1.08,5.21-1.56,7.81-1.13,.16-2.25,.34-3.38,.52,1.43-8.32,3.28-16.64,5.56-24.93,1.51-.17,3.03-.33,4.54-.47,4.15,7.62,7.89,15.36,11.21,23.19-1.18,.05-2.36,.12-3.53,.19-1.09-2.44-2.23-4.88-3.4-7.3-3.16,.25-6.3,.58-9.44,.98Zm8.51-3.33c-1.1-2.21-2.23-4.41-3.39-6.61-.79-1.49-1.38-2.86-1.97-4.19-.03,0-.06,0-.08,0-.26,1.45-.55,2.95-.91,4.45-.63,2.39-1.22,4.79-1.78,7.18,2.7-.34,5.42-.62,8.13-.85Z"/><path d="M298.18,122.62c-2.42-8.08-5.25-16.11-8.47-24.06,1.36,0,2.73,0,4.09,.02,1.46,3.95,2.82,7.91,4.08,11.89,1.05,3.27,1.89,6.22,2.42,9.06,.03,0,.05,0,.08,0,.89-2.72,2.2-5.67,3.65-8.7,1.85-3.82,3.79-7.62,5.84-11.39,1.34,.12,2.68,.26,4.02,.41-4.45,7.53-8.48,15.2-12.07,22.97-1.21-.07-2.43-.14-3.65-.18Z"/><path d="M321.67,125.09c1.5-7.84,3-15.69,4.49-23.53,1.36,.23,2.71,.48,4.06,.73,2.23,4.54,4.24,9.11,6.05,13.7,1.25,3.19,2.05,6.01,2.55,8.68,.03,0,.06,0,.09-.01,.61-3.15,1.35-5.98,2.4-9.57,.94-3.21,1.89-6.43,2.83-9.64,1.15,.3,2.29,.62,3.43,.94-2.4,7.64-4.8,15.28-7.2,22.92-1.07-.3-2.14-.6-3.22-.88-1.48-4.59-3.16-9.16-5.06-13.72-1.25-3-2.5-6.04-3.39-8.84-.04,0-.09,0-.13,.01-.41,3-.92,5.83-1.74,9.73-.7,3.34-1.41,6.68-2.11,10.02-1.02-.19-2.04-.38-3.06-.55Z"/><path d="M360.94,136.55c3.39-7.29,6.78-14.58,10.16-21.88,1.26,.54,2.52,1.09,3.77,1.65,1.05,4.93,1.88,9.86,2.5,14.75,.43,3.4,.51,6.34,.34,9.07,.03,0,.06,0,.09,0,1.37-2.93,2.79-5.51,4.69-8.76,1.71-2.91,3.42-5.82,5.12-8.73,1.04,.57,2.07,1.14,3.1,1.73-4.21,6.88-8.43,13.77-12.64,20.65-.96-.55-1.93-1.09-2.91-1.62-.3-4.82-.81-9.67-1.53-14.55-.47-3.21-.94-6.46-1.11-9.39-.04,0-.09-.01-.13-.02-1.14,2.82-2.33,5.47-4.09,9.07-1.51,3.09-3.01,6.18-4.52,9.27-.94-.42-1.89-.83-2.84-1.24Z"/><path d="M407.13,134.94c-4.9,6.44-9.81,12.88-14.71,19.32-.89-.64-1.79-1.28-2.69-1.9,4.77-6.53,9.55-13.06,14.32-19.59,1.03,.72,2.06,1.44,3.08,2.18Z"/><path d="M421.21,164.23c-2.48-2.59-5.04-5.08-7.68-7.48-2,2.13-4,4.27-6,6.4,2.79,2.54,5.5,5.2,8.11,7.97-.64,.6-1.28,1.2-1.93,1.8-3.34-3.54-6.83-6.89-10.47-10.05,5.43-6.03,10.85-12.05,16.28-18.08,3.99,3.48,7.84,7.15,11.52,11.02-.64,.6-1.28,1.2-1.92,1.81-2.77-2.91-5.62-5.7-8.57-8.38-1.75,1.87-3.5,3.74-5.26,5.61,2.67,2.43,5.27,4.96,7.79,7.59-.63,.6-1.26,1.19-1.89,1.79Z"/><path d="M440.94,167.18c.8,1.01,1.6,2.04,2.38,3.07-5.73,4.42-11.46,8.83-17.19,13.25,2.3,3.04,4.51,6.19,6.6,9.45-.73,.49-1.46,.98-2.19,1.46-2.69-4.18-5.55-8.18-8.59-11.99,6.33-5.08,12.65-10.17,18.98-15.25Z"/><path d="M439.91,202.8c.01,1.86,.46,4.29,1.55,6.53,1.6,3.32,3.98,4.62,6.19,3.57,2.04-.97,2.61-2.98,2.02-7.16-.83-4.98-.51-8.61,2.47-10.33,3.26-1.9,7.66,.21,10.29,5.85,1.38,2.96,1.79,5.41,1.78,6.98-.92,0-1.84,.01-2.75,.03-.01-1.13-.2-3.39-1.4-5.97-1.83-3.89-4.33-4.35-5.77-3.56-2,1.09-2.11,3.25-1.51,7.59,.72,5.34-.16,8.56-3.4,10.01-3.44,1.52-7.52-.21-10.32-6.04-1.15-2.39-1.89-5.27-1.85-6.99,.9-.18,1.81-.35,2.71-.51Z"/><path d="M462.9,244.44c-.87-4.1-1.87-8.11-2.99-12.03-2.75,.9-5.51,1.81-8.26,2.71,1.18,4.15,2.22,8.41,3.12,12.79-.84,.21-1.69,.41-2.53,.62-1.15-5.59-2.53-10.99-4.15-16.21,7.58-2.68,15.17-5.36,22.76-8.04,1.78,5.74,3.31,11.67,4.59,17.8-.84,.21-1.68,.42-2.53,.63-.96-4.6-2.07-9.09-3.31-13.46-2.41,.79-4.83,1.58-7.24,2.38,1.13,3.97,2.14,8.04,3.03,12.2-.83,.21-1.66,.42-2.49,.63Z"/><path d="M454.64,263.32c7.9-1.19,15.8-2.38,23.7-3.56,.21,1.7,.39,3.4,.56,5.13-3.63,4.41-7.38,8.63-11.23,12.67-2.68,2.8-5.15,4.91-7.57,6.61,.01,.03,.03,.07,.04,.1,3.18-.48,6.09-.67,9.82-.76,3.33-.08,6.67-.17,10-.25,.03,1.57,.04,3.14,.04,4.73-7.97,0-15.94,0-23.91,0,0-1.49-.02-2.96-.04-4.43,3.97-3.68,7.85-7.56,11.62-11.62,2.48-2.68,4.98-5.35,7.37-7.49-.02-.05-.03-.1-.05-.16-2.97,.65-5.82,1.11-9.76,1.61-3.38,.43-6.77,.86-10.15,1.28-.13-1.3-.27-2.58-.43-3.86Z"/></g></svg>