<?xml version="1.0" encoding="UTF-8"?><svg id="Layer_1" xmlns="http://www.w3.org/2000/svg" viewBox="0 0 1366 768"><defs><style>.cls-1{fill:#c9c9c9;}.cls-2{fill:none;stroke:#000;stroke-miterlimit:10;stroke-width:5px;}</style></defs><rect class="cls-1" x="-.5" y=".5" width="1367" height="768"/><g><path d="M137.65,246.75c6.16-.97,14.24-1.8,24.51-1.8,12.62,0,21.87,2.77,27.74,7.76,5.43,4.44,8.66,11.23,8.66,19.55s-2.64,15.11-7.63,19.96c-6.75,6.79-17.76,10.26-30.23,10.26-3.82,0-7.34-.14-10.27-.83v37.43h-12.77v-92.33Zm12.77,45.06c2.79,.69,6.31,.97,10.57,.97,15.41,0,24.8-7.07,24.8-19.96s-9.25-18.3-23.33-18.3c-5.58,0-9.83,.42-12.03,.97v36.32Z"/><path d="M234.96,324c-.02,10.2-6.6,15.59-14.6,15.57-8.28-.02-14.08-6.1-14.06-15.06,.02-9.4,6.23-15.54,14.6-15.52,8.56,.02,14.08,6.23,14.06,15.02Zm-24.33,.43c-.02,6.33,3.6,12.01,9.97,12.02,6.42,.01,10.06-5.56,10.08-12.28,.01-5.89-3.23-12.05-9.97-12.06-6.7-.02-10.06,5.82-10.08,12.33Z"/><path d="M244.79,272.58c4.66-.9,11.33-1.4,17.68-1.4,9.85,0,16.2,1.7,20.64,5.5,3.6,3,5.61,7.6,5.61,12.8,0,8.9-5.93,14.8-13.44,17.2v.3c5.5,1.8,8.79,6.6,10.48,13.6,2.33,9.4,4.02,15.9,5.5,18.5h-9.53c-1.16-1.9-2.75-7.7-4.76-16.1-2.12-9.3-5.93-12.8-14.29-13.1h-8.68v29.2h-9.21v-66.5Zm9.21,30.7h9.42c9.85,0,16.09-5.1,16.09-12.8,0-8.7-6.67-12.5-16.41-12.6-4.45,0-7.62,.4-9.1,.8v24.6Z"/><path d="M327.54,245.05h-34.01v-11.6h82.78v11.6h-34.17v94.03h-14.6v-94.03Z"/><path d="M382.51,285.77h30.4v5.77h-23.11v17.72h21.35v5.7h-21.35v24.13h-7.29v-53.31Z"/><path d="M451.65,321.79c0,11.67-7.51,17.85-16.67,17.85s-16.14-6.94-16.14-17.2c0-10.76,7.08-17.8,16.67-17.8s16.14,7.09,16.14,17.15Zm-27.85,.55c0,7.24,4.15,13.73,11.45,13.73s11.5-6.39,11.5-14.08c0-6.74-3.73-13.78-11.45-13.78s-11.5,6.69-11.5,14.13Z"/><path d="M462.98,260.58h10.73v70.01h35.52v8.5h-46.25v-78.51Z"/><path d="M545.37,208.01v131.08h-17.91V208.01h17.91Z"/><path d="M608.73,315.31c0,16.04-10.32,24.54-22.91,24.54s-22.17-9.54-22.17-23.64c0-14.79,9.73-24.47,22.91-24.47s22.17,9.75,22.17,23.57Zm-38.27,.76c0,9.95,5.71,18.87,15.73,18.87s15.81-8.78,15.81-19.35c0-9.26-5.12-18.94-15.73-18.94s-15.81,9.19-15.81,19.42Z"/></g><path class="cls-2" d="M987.89,323.9c85.42,9.29,106.52,1.84,109.15-7.17,3.31-11.3-21.06-29.52-36.49-37.41-9.67-4.94-33.66-17.74-59.54-7.88-19.71,7.51-29.66,23.98-33.61,30.52-9.65,15.97-10.92,31.65-13.44,63.01-1.11,13.74-2.33,29.95,0,51.19,2.7,24.58,4.05,36.87,9.66,45.6,0,.01,.02,.02,.02,.03,1.35,9.21-4.98,10.15-7.65,9.21-3.14-1.1-3.95-7.94-11.84-11.72-1.74-.83-3.8,.17-4.22,2.05-.9,4.02-3.19,10.15-9.03,13.9-3.67,2.37-10.89,5.17-15.36,1.97-5.69-4.08-2.75-14.89-5.76-15.75-4.27-1.23-10.56,20.4-17.28,19.69-4.45-.47-8.18-10.63-7.68-19.69,.5-9.06,5.06-13.72,9.6-21.66,5.75-10.06,7.67-21.14,11.52-43.32,1.05-6.02,3.45-21.13,3.84-41.35,.52-26.87,.82-42.26-5.76-61.04-3.46-9.88-11.36-31.51-32.65-47.25-7.55-5.58-23.62-17.47-46.09-15.75-23.7,1.81-38.48,17.52-42.25,21.66-15.83,17.36-17.88,37.87-19.21,51.19-.74,7.4-2.77,27.78,5.76,49.22,2.66,6.67,5.11,10.37,7.68,19.69,3.11,11.28,7.21,26.12,0,33.47-4.49,4.59-12.21,5.06-17.28,3.94-8.59-1.9-10.44-8.56-15.36-7.88-6.3,.87-10.59,12.8-11.52,21.66-2.06,19.63,11.3,34.78,15.36,39.38,2.93,3.32,12.04,13.39,24.97,15.75,1.24,.23,4.25,.7,8.1,.35,1.3-.12,14.72-1.34,16.86-8.22,1.75-5.62-4.21-14.42-7.68-13.78-5.97,1.09-7.81,30.65-1.92,55.13,1.7,7.06,3.72,12.38,5.76,17.72,2.05,5.39,7.82,19.79,19.21,37.41,8.18,12.67,18.21,28.18,36.49,43.32,17.53,14.51,33.79,21.34,44.17,25.6,17.19,7.06,29.19,11.98,46.09,11.81,24.76-.24,42.75-11.23,49.93-15.75,15.36-9.65,24.22-20.85,32.65-31.5,10.29-13,15.98-23.9,23.05-37.41,12.96-24.79,19.72-44.97,21.13-49.22,2.94-8.9,2.33-8.47,13.44-57.1,3.53-15.45,8.82-37.81,23.05-61.04,4.5-7.35,9.14-13.56,15.36-13.78,9.28-.34,16.56,12.84,19.21,19.69,.84,2.16,8.61,23.23-3.84,37.41-9.53,10.86-27.84,14.18-32.65,7.88-5.56-7.28,6.1-28.49,11.52-27.57,2.75,.47,4.43,18.04,7.68,53.16,.61,6.62,1.45,16.09,1.18,28.69-.1,4.65-.26,11.94-1.18,18.57-2.9,20.96-14.65,44.54-21.13,43.32-6.29-1.19-7.81-25.84-5.76-43.32,1.7-14.51,6.09-25.98,9.6-33.47"/></svg>